<svg width="74" height="74" viewBox="0 0 74 74" fill="none" xmlns="http://www.w3.org/2000/svg">
<g clip-path="url(#clip0_61_154)">
<path d="M61.2817 13.6036C61.2817 10.8673 59.0555 8.64111 56.3192 8.64111C53.5829 8.64111 51.3567 10.8673 51.3567 13.6036C51.3567 16.34 53.5829 18.5661 56.3192 18.5661C59.0555 18.5661 61.2817 16.34 61.2817 13.6036ZM56.3192 15.0837C55.5031 15.0837 54.8391 14.4197 54.8391 13.6036C54.8391 12.7875 55.5031 12.1236 56.3192 12.1236C57.1353 12.1236 57.7992 12.7875 57.7992 13.6036C57.7992 14.4197 57.1353 15.0837 56.3192 15.0837Z" fill="white"/>
<path d="M72.9216 7.83275C72.5975 6.92731 71.6007 6.45631 70.6952 6.7807L68.8723 7.43348C66.5697 3.02173 61.9463 0 56.6655 0C56.6287 0 56.5916 0.000174123 56.5549 0.000348246C51.6342 0.0407448 47.0798 2.73599 44.6693 7.03457C41.9754 11.8369 38.9382 16.0778 35.6417 19.6392C25.9213 30.1393 12.0134 44.8255 11.5336 45.3319L1.97081 55.0424C0.779288 56.2511 0.643995 58.0547 1.64172 59.428C2.63962 60.8011 4.39669 61.23 5.91418 60.4701C12.0877 57.3847 19.361 57.1172 25.8697 59.7367C29.0955 61.035 32.4885 61.7602 35.9725 61.9016L39.6071 72.8088C39.8502 73.5386 40.5298 74 41.2589 74C41.4412 74 41.627 73.9711 41.8095 73.9102C42.7219 73.6061 43.215 72.6201 42.911 71.7078L39.6213 61.8356C40.5464 61.7639 41.4633 61.6503 42.3698 61.4962L46.1397 72.8088C46.3828 73.5384 47.0624 74 47.7914 74C47.9739 74 48.1594 73.9711 48.342 73.9102C49.2544 73.6061 49.7475 72.6201 49.4435 71.7077L45.7786 60.7101C50.653 59.2845 55.1239 56.6375 58.8199 52.9193C64.5957 47.1086 67.7494 39.4228 67.7003 31.2772C67.6826 28.5602 67.3084 25.8762 66.5863 23.2832C69.0959 20.6707 70.4823 17.1711 70.4215 13.5175C70.4051 12.551 70.2859 11.6091 70.078 10.7006L71.8688 10.0591C72.7748 9.73487 73.2458 8.73819 72.9216 7.83275ZM66.9403 13.576C66.9902 16.5889 65.7228 19.4619 63.4625 21.4586C62.9457 21.9151 62.7472 22.6337 62.956 23.2909C63.7761 25.8714 64.2008 28.5659 64.2186 31.299C64.2621 38.5097 61.4679 45.3162 56.3506 50.4643C55.0348 51.7882 53.6077 52.9578 52.0918 53.9668C51.3289 51.5881 50.9415 49.1091 50.9415 46.5713C50.9415 41.2262 52.6481 36.1596 55.8768 31.919C56.4595 31.1539 56.3115 30.0615 55.5464 29.4788C54.7809 28.8961 53.6885 29.0444 53.1062 29.8093C49.4118 34.6614 47.459 40.4576 47.459 46.5713C47.459 49.724 47.9819 52.7988 49.0121 55.7343C45.384 57.5081 41.3802 58.4465 37.2363 58.4465C33.7561 58.4465 30.3692 57.7937 27.1699 56.506C23.783 55.143 20.2139 54.4653 16.6624 54.4653C12.5777 54.4653 8.51679 55.3624 4.7883 57.1444L14.0266 47.7633C14.0344 47.7553 14.0422 47.7473 14.0501 47.7391C14.1916 47.5896 28.341 32.6515 38.1973 22.0048C41.6796 18.2427 44.8789 13.7792 47.7065 8.73801C49.5076 5.52649 52.9089 3.51276 56.5831 3.48263C60.3948 3.45199 63.7577 5.52962 65.556 8.62118L65.0359 8.80749C64.1306 9.13171 63.6596 10.1286 63.9838 11.0338C64.2386 11.7451 64.9086 12.1884 65.623 12.1884C65.8179 12.1884 66.0162 12.1555 66.2102 12.0861L66.7681 11.8862C66.8701 12.4359 66.9303 12.9998 66.9403 13.576Z" fill="white"/>
<path d="M44.7723 30.3397C44.7707 30.3397 44.7693 30.3397 44.7679 30.3397C43.8083 30.3397 43.0293 31.1164 43.0269 32.0767C43.0267 32.1403 43.026 32.2036 43.0251 32.2658C42.9661 36.1205 41.4239 39.7637 38.6828 42.5241C35.9416 45.2845 32.3094 46.8516 28.4557 46.9367C26.898 46.9708 25.383 46.7727 23.9254 46.3452L38.4789 30.3196C39.1255 29.6077 39.0723 28.5065 38.3604 27.86C37.6485 27.2135 36.5472 27.2664 35.9007 27.9784L19.6404 45.8833C19.2707 46.2905 19.1149 46.8484 19.2208 47.3884C19.3263 47.9282 19.681 48.3865 20.1769 48.6241C22.6691 49.8186 25.3353 50.423 28.1087 50.423C28.2497 50.423 28.3909 50.4214 28.5325 50.4183C33.292 50.3131 37.7743 48.3811 41.1538 44.9778C44.533 41.5749 46.4343 37.0793 46.5072 32.3175C46.5084 32.2399 46.5091 32.1624 46.5093 32.0851C46.5116 31.1234 45.7338 30.3419 44.7723 30.3397Z" fill="white"/>
<path d="M58.6604 24.3218C58.0937 24.7426 57.5356 25.191 57.0019 25.6545C56.2758 26.285 56.1983 27.3848 56.829 28.1109C57.1732 28.5074 57.6575 28.7104 58.1443 28.7104C58.5492 28.7104 58.9557 28.57 59.2854 28.2838C59.7525 27.8781 60.2408 27.4858 60.7365 27.1177C61.5087 26.5445 61.6698 25.4538 61.0966 24.6817C60.523 23.9098 59.4325 23.7486 58.6604 24.3218Z" fill="white"/>
</g>
<defs>
<clipPath id="clip0_61_154">
<rect width="74" height="74" fill="white"/>
</clipPath>
</defs>
</svg>
