<svg width="68" height="68" viewBox="0 0 68 68" fill="none" xmlns="http://www.w3.org/2000/svg">
<path d="M58.7796 9.43095C57.6732 8.32445 55.8791 8.32445 54.7727 9.43095L34.1052 30.0984L13.4379 9.43095C12.3314 8.32445 10.5374 8.32445 9.43095 9.43095C8.32445 10.5374 8.32445 12.3314 9.43095 13.4379L30.0983 34.1053L9.43101 54.7725C8.32451 55.8792 8.32451 57.673 9.43101 58.7797C10.5375 59.8861 12.3315 59.8861 13.4379 58.7797L34.1052 38.1122L54.7727 58.7797C55.8791 59.8861 57.6732 59.8861 58.7796 58.7797C59.886 57.673 59.886 55.8792 58.7796 54.7727L38.1121 34.1053L58.7796 13.4379C59.886 12.3314 59.886 10.5374 58.7796 9.43095Z" fill="#F3F3F3"/>
</svg>
