<svg width="84" height="84" viewBox="0 0 84 84" fill="none" xmlns="http://www.w3.org/2000/svg">
<path d="M2.49247 83.4519C1.95074 83.4526 1.42354 83.2766 0.990901 82.9506C0.558263 82.6246 0.243773 82.1662 0.0950979 81.6453C-0.0535769 81.1244 -0.0282515 80.5693 0.167133 80.064C0.362517 79.5588 0.717284 79.131 1.17775 78.8457C1.52883 78.6265 36.4127 56.7874 45.1324 34.4429C45.3784 33.8362 45.8535 33.3508 46.4548 33.0918C47.056 32.8328 47.7351 32.821 48.3449 33.059C48.9548 33.297 49.4464 33.7656 49.7133 34.3634C49.9802 34.9611 50.001 35.64 49.7711 36.253C40.4464 60.1563 5.29363 82.1522 3.80217 83.0635C3.41074 83.3134 2.95685 83.448 2.49247 83.4519Z" fill="black"/>
<path d="M10.6419 76.3683L10.5996 73.6544C10.5025 60.5101 14.1076 47.6038 21.0024 36.4125L21.7494 35.3145H31.2261L28.9279 27.8872L29.6574 26.8911C43.6284 7.63409 67.7333 1.72296 77.449 0.0746345C78.2915 -0.0639308 79.1544 -0.00905663 79.9725 0.235118C80.7907 0.479292 81.5426 0.90638 82.1714 1.48403C82.8001 2.06168 83.2893 2.77482 83.6017 3.5694C83.9142 4.36398 84.0419 5.21922 83.9751 6.07042C79.5156 68.555 13.9958 76.0372 13.3335 76.0995L10.6419 76.3683ZM24.4535 40.2944C19.1162 49.5934 16.0819 60.0348 15.6043 70.7461C27.8273 68.7268 75.32 57.5496 79.0201 5.7069C79.0307 5.59977 79.0161 5.49162 78.9771 5.39125C78.9382 5.29088 78.8761 5.20114 78.796 5.12925C78.7313 5.06578 78.6523 5.01896 78.5655 4.99293C78.4787 4.9669 78.3869 4.96245 78.298 4.97986C69.3592 6.49373 47.4404 11.8322 34.4405 28.8209L36.3727 35.1179C36.5566 35.7163 36.5975 36.3494 36.4922 36.9665C36.3868 37.5836 36.1381 38.1672 35.7661 38.6707C35.3941 39.1742 34.9092 39.5834 34.3503 39.8654C33.7914 40.1474 33.1742 40.2943 32.5482 40.2944H24.4535Z" fill="black"/>
</svg>
