<svg width="86" height="86" viewBox="0 0 86 86" fill="none" xmlns="http://www.w3.org/2000/svg">
<g clip-path="url(#clip0_74_2)">
<path fill-rule="evenodd" clip-rule="evenodd" d="M43 51.6C59.2755 51.6 72.9194 61.1202 76.4712 77.4H9.52882C13.0806 61.1202 26.7245 51.6 43 51.6ZM25.8 25.8C25.8 16.3142 33.5142 8.6 43 8.6C52.4858 8.6 60.2 16.3142 60.2 25.8C60.2 35.2858 52.4858 43 43 43C33.5142 43 25.8 35.2858 25.8 25.8ZM59.1594 45.8938C65.0332 41.1681 68.8 33.927 68.8 25.8C68.8 11.5498 57.2502 0 43 0C28.7498 0 17.2 11.5498 17.2 25.8C17.2 33.927 20.9668 41.1681 26.8406 45.8938C11.1069 51.8063 0 66.4135 0 86H86C86 66.4135 74.8931 51.8063 59.1594 45.8938Z" fill="#F2F2F2"/>
</g>
<defs>
<clipPath id="clip0_74_2">
<rect width="86" height="86" fill="white"/>
</clipPath>
</defs>
</svg>
